<?xml version="1.0" encoding="UTF-8" standalone="no"?>
<!DOCTYPE svg PUBLIC "-//W3C//DTD SVG 1.1//EN" "http://www.w3.org/Graphics/SVG/1.1/DTD/svg11.dtd">
<svg version="1.1" xmlns="http://www.w3.org/2000/svg" xmlns:xlink="http://www.w3.org/1999/xlink" preserveAspectRatio="xMidYMid meet" viewBox="0 0 434 119" width="434" height="119"><defs><path d="M0 0L42.5 0C42.5 19.82 42.5 32.2 42.5 37.16C42.5 37.16 43.42 52.79 43.42 52.79C43.74 55.49 44.17 59.14 44.59 62.67C44.88 65.09 45.5 67.45 46.45 69.69C47.55 72.29 46.54 69.9 46.92 70.79C50.12 78.34 56.5 84.09 64.34 86.48C65.03 86.69 66.77 87.23 69.55 88.07L435.08 88.07L435.08 119.14C233.77 119.14 107.94 119.14 57.61 119.14C47.65 119.14 37.79 117.06 28.68 113.03C27.19 112.38 33.84 115.32 31.68 114.36C24.77 111.31 18.41 107.16 12.83 102.07C11.64 100.98 15.67 104.66 14.28 103.39C9.42 98.95 5.71 93.41 3.45 87.24C2.76 85.35 3.31 86.84 2.41 84.39C0.82 80.02 0 75.41 0 70.76C0 61.32 0 37.74 0 0Z" id="b1Shspt5F"></path></defs><g><g><g><use xlink:href="#b1Shspt5F" opacity="1" fill="#dcdddf" fill-opacity="1"></use><g><use xlink:href="#b1Shspt5F" opacity="1" fill-opacity="0" stroke="#000000" stroke-width="0" stroke-opacity="1"></use></g></g></g></g></svg>