<?xml version="1.0" encoding="UTF-8" standalone="no"?>
<!DOCTYPE svg PUBLIC "-//W3C//DTD SVG 1.1//EN" "http://www.w3.org/Graphics/SVG/1.1/DTD/svg11.dtd">
<svg version="1.1" xmlns="http://www.w3.org/2000/svg" xmlns:xlink="http://www.w3.org/1999/xlink" preserveAspectRatio="xMidYMid meet" viewBox="0 0 280 220" width="280" height="220"><defs><path d="M280.81 220.77L280.81 0C131.22 0 37.73 0 0.33 0C-0.05 0 -0.14 0.54 0.22 0.66C5.4 2.42 8.78 3.57 11.4 4.47C21.04 7.75 29.69 13.44 36.52 21.01C38.66 23.38 34.68 18.97 36.82 21.34C43.66 28.92 48.72 37.95 51.62 47.74C61.85 82.35 85.82 163.4 95.47 196.04C99.81 210.7 113.28 220.77 128.58 220.77C148.87 220.77 199.62 220.77 280.81 220.77Z" id="bi6BxcJzq"></path></defs><g><g><g><use xlink:href="#bi6BxcJzq" opacity="1" fill="#00a77a" fill-opacity="1"></use><g><use xlink:href="#bi6BxcJzq" opacity="1" fill-opacity="0" stroke="#000000" stroke-width="0" stroke-opacity="0"></use></g></g></g></g></svg>