<?xml version="1.0" encoding="UTF-8" standalone="no"?>
<!DOCTYPE svg PUBLIC "-//W3C//DTD SVG 1.1//EN" "http://www.w3.org/Graphics/SVG/1.1/DTD/svg11.dtd">
<svg version="1.1" xmlns="http://www.w3.org/2000/svg" xmlns:xlink="http://www.w3.org/1999/xlink" preserveAspectRatio="xMidYMid meet" viewBox="0 0 280 220" width="280" height="220"><defs><path d="M280.81 0L280.81 220.77C131.22 220.77 37.73 220.77 0.33 220.77C-0.05 220.77 -0.14 220.23 0.22 220.11C5.4 218.35 8.78 217.2 11.4 216.3C21.04 213.02 29.69 207.32 36.52 199.76C38.66 197.39 34.68 201.8 36.82 199.43C43.66 191.84 48.72 182.82 51.62 173.03C61.85 138.42 85.82 57.37 95.47 24.73C99.81 10.07 113.28 0 128.58 0C148.87 0 199.62 0 280.81 0Z" id="dGrIhqYMm"></path></defs><g><g><g><use xlink:href="#dGrIhqYMm" opacity="1" fill="#00a77a" fill-opacity="1"></use><g><use xlink:href="#dGrIhqYMm" opacity="1" fill-opacity="0" stroke="#000000" stroke-width="0" stroke-opacity="0"></use></g></g></g></g></svg>