<?xml version="1.0" encoding="UTF-8" standalone="no"?>
<!DOCTYPE svg PUBLIC "-//W3C//DTD SVG 1.1//EN" "http://www.w3.org/Graphics/SVG/1.1/DTD/svg11.dtd">
<svg version="1.1" xmlns="http://www.w3.org/2000/svg" xmlns:xlink="http://www.w3.org/1999/xlink" preserveAspectRatio="xMidYMid meet" viewBox="0 0 539 119" width="539" height="119"><defs><path d="M49.78 27.11L539 27.11L539 119L49.78 119L49.78 27.11Z" id="a1hSn6RiOR"></path><path d="M0 119.14L52.65 119.14C52.65 99.32 52.65 86.94 52.65 81.98C52.65 76.76 53.03 71.55 53.79 66.38C54.19 63.67 54.72 59.99 55.24 56.45C55.59 54.05 56.35 51.73 57.48 49.58C58.86 46.95 57.85 48.88 58.37 47.89C62.19 40.6 68.95 35.31 76.94 33.34C78.17 33.04 81.24 32.28 86.16 31.07L539 31.07L539 0C287.67 0 130.6 0 67.76 0C57.76 0 47.84 1.72 38.42 5.08C36 5.94 40.18 4.44 37.07 5.56C29.94 8.1 23.23 11.66 17.15 16.15C15.42 17.42 18.54 15.13 16.59 16.56C11.3 20.46 7.11 25.64 4.4 31.62C3.52 33.57 4.02 32.46 2.9 34.95C0.99 39.17 0 43.75 0 48.38C0 57.82 0 81.4 0 119.14Z" id="avNRC6Apr"></path></defs><g><g><g><use xlink:href="#a1hSn6RiOR" opacity="1" fill="#ffffff" fill-opacity="1"></use></g><g><use xlink:href="#avNRC6Apr" opacity="1" fill="#dfdd52" fill-opacity="1"></use><g><use xlink:href="#avNRC6Apr" opacity="1" fill-opacity="0" stroke="#000000" stroke-width="0" stroke-opacity="1"></use></g></g></g></g></svg>